<svg width="662" height="662" viewBox="0 0 662 662" fill="none" xmlns="http://www.w3.org/2000/svg">
<rect width="662" height="662" rx="238" fill="black"/>
<path d="M482.825 381.179C478.775 373.079 474.305 364.908 469.417 356.668C464.669 348.289 459.152 339.769 452.867 331.11C450.912 333.624 448.398 337.116 445.325 341.585C442.392 346.054 439.39 350.802 436.317 355.83C433.384 360.858 430.591 365.677 427.937 370.285C425.284 374.894 423.329 378.525 422.072 381.179H384.782C390.927 369.866 398.05 357.995 406.15 345.565C414.39 333.135 423.538 319.937 433.594 305.971L386.877 236H426.471L454.753 281.251L482.406 236H519.696L473.607 306.39C485.339 321.613 495.185 335.719 503.146 348.708C511.106 361.556 517.391 372.38 522 381.179H482.825Z" fill="white"/>
<path d="M382.797 276.432L344.669 381.179C340.758 392.212 336.498 401.011 331.89 407.575C327.281 414.139 321.834 418.888 315.549 421.821C309.264 424.754 301.723 426.22 292.924 426.22C287.058 426.22 281.681 425.592 276.793 424.335C271.905 423.078 267.645 421.332 264.014 419.097L271.136 395.006C273.65 396.821 276.304 398.078 279.097 398.777C281.89 399.615 285.452 400.033 289.781 400.033C293.832 400.033 297.114 399.335 299.628 397.939C302.281 396.542 304.376 393.888 305.912 389.978L308.636 383.484L296.485 354.992L265.061 276.432H304.236L320.367 336.138L325.395 358.344L331.261 335.3L347.392 276.432H382.797Z" fill="white"/>
<path d="M203.477 242.913C214.789 242.913 224.426 244.729 232.387 248.36C240.347 251.991 246.423 257.229 250.613 264.072C254.802 270.916 256.897 279.226 256.897 289.002C256.897 298.778 254.802 307.088 250.613 313.932C246.423 320.775 240.347 326.012 232.387 329.644C224.426 333.275 214.789 335.09 203.477 335.09H176.033V381.179H140V242.913H203.477ZM197.82 308.066C205.362 308.066 211.018 306.53 214.789 303.457C218.7 300.245 220.655 295.426 220.655 289.002C220.655 282.577 218.7 277.829 214.789 274.756C211.018 271.544 205.362 269.938 197.82 269.938H176.033V308.066H197.82Z" fill="white"/>
</svg>
